<svg aria-hidden="true" style="position: absolute; width: 0; height: 0; overflow: hidden;" version="1.1" xmlns="http://www.w3.org/2000/svg" xmlns:xlink="http://www.w3.org/1999/xlink">
<defs>
<symbol id="icon-id" viewBox="0 0 40 32">
<path fill="#244a5b" style="fill: var(--color1, #244a5b)" d="M0 4.526c0-2.497 2.014-4.526 4.491-4.526h31.439c2.477 0 4.491 2.030 4.491 4.526h-40.421zM0 7.921h40.421v19.237c0 2.497-2.014 4.526-4.491 4.526h-31.439c-2.477 0-4.491-2.030-4.491-4.526v-19.237zM17.354 27.158c1.418 0 2.477-1.372 1.572-2.475-1.032-1.252-2.589-2.051-4.33-2.051h-4.491c-1.74 0-3.298 0.799-4.33 2.051-0.905 1.103 0.154 2.475 1.572 2.475h10.007zM12.351 19.803c1.042 0 2.042-0.417 2.779-1.16s1.151-1.75 1.151-2.8c0-1.050-0.414-2.058-1.151-2.8s-1.737-1.16-2.779-1.16c-1.042 0-2.042 0.417-2.779 1.16s-1.151 1.75-1.151 2.8 0.414 2.058 1.151 2.8c0.737 0.743 1.737 1.16 2.779 1.16zM25.263 12.447c-0.933 0-1.684 0.757-1.684 1.697s0.751 1.697 1.684 1.697h7.86c0.933 0 1.684-0.757 1.684-1.697s-0.751-1.697-1.684-1.697h-7.86zM25.263 19.237c-0.933 0-1.684 0.757-1.684 1.697s0.751 1.697 1.684 1.697h7.86c0.933 0 1.684-0.757 1.684-1.697s-0.751-1.697-1.684-1.697h-7.86z"></path>
</symbol>
<symbol id="icon-search" viewBox="0 0 32 32">
<path fill="#fff" style="fill: var(--color2, #fff)" d="M21.001 23.307c-2.615 2.032-5.906 2.991-9.203 2.681s-6.352-1.866-8.543-4.35c-2.191-2.484-3.353-5.711-3.249-9.022s1.464-6.459 3.806-8.802c2.342-2.343 5.487-3.704 8.797-3.808s6.535 1.059 9.018 3.251c2.483 2.192 4.038 5.248 4.348 8.547s-0.648 6.591-2.68 9.208l8.705 8.676-2.31 2.312-8.672-8.693h-0.016zM13.029 22.786c1.282 0 2.551-0.253 3.736-0.744s2.261-1.21 3.167-2.117c0.907-0.907 1.626-1.984 2.116-3.169s0.743-2.455 0.743-3.738-0.252-2.553-0.743-3.738c-0.491-1.185-1.21-2.262-2.116-3.169s-1.983-1.626-3.167-2.117c-1.184-0.491-2.454-0.743-3.736-0.743-2.589 0-5.072 1.029-6.903 2.861s-2.859 4.316-2.859 6.906c0 2.59 1.028 5.075 2.859 6.906s4.314 2.861 6.903 2.861z"></path>
</symbol>
<symbol id="icon-gray-quotes" viewBox="0 0 43 32">
<path fill="#f0f0f0" style="fill: var(--color3, #f0f0f0)" d="M0 0.667c0-0.368 0.298-0.667 0.667-0.667h17.793c0.368 0 0.667 0.298 0.667 0.667v18.068c0 0.114-0.029 0.227-0.085 0.327l-7.080 12.599c-0.118 0.21-0.34 0.34-0.581 0.34h-7.298c-0.51 0-0.831-0.549-0.581-0.993l6.24-11.104c0.25-0.444-0.071-0.993-0.581-0.993h-8.493c-0.368 0-0.667-0.298-0.667-0.667v-17.576z"></path>
<path fill="#f0f0f0" style="fill: var(--color3, #f0f0f0)" d="M23.126 0.667c0-0.368 0.298-0.667 0.667-0.667h17.793c0.368 0 0.667 0.298 0.667 0.667v18.068c0 0.114-0.029 0.227-0.085 0.327l-7.080 12.599c-0.118 0.21-0.34 0.34-0.581 0.34h-7.298c-0.51 0-0.831-0.549-0.581-0.993l6.24-11.104c0.25-0.444-0.071-0.993-0.581-0.993h-8.493c-0.368 0-0.667-0.298-0.667-0.667v-17.576z"></path>
</symbol>
<symbol id="icon-blue-quotes" viewBox="0 0 43 32">
<path fill="#244a5b" style="fill: var(--color1, #244a5b)" d="M0 0.667c0-0.368 0.298-0.667 0.667-0.667h17.793c0.368 0 0.667 0.298 0.667 0.667v18.068c0 0.114-0.029 0.227-0.085 0.327l-7.080 12.599c-0.118 0.21-0.34 0.34-0.581 0.34h-7.298c-0.51 0-0.831-0.549-0.581-0.993l6.24-11.104c0.25-0.444-0.071-0.993-0.581-0.993h-8.493c-0.368 0-0.667-0.298-0.667-0.667v-17.576z"></path>
<path fill="#244a5b" style="fill: var(--color1, #244a5b)" d="M23.126 0.667c0-0.368 0.298-0.667 0.667-0.667h17.793c0.368 0 0.667 0.298 0.667 0.667v18.068c0 0.114-0.029 0.227-0.085 0.327l-7.080 12.599c-0.118 0.21-0.34 0.34-0.581 0.34h-7.298c-0.51 0-0.831-0.549-0.581-0.993l6.24-11.104c0.25-0.444-0.071-0.993-0.581-0.993h-8.493c-0.368 0-0.667-0.298-0.667-0.667v-17.576z"></path>
</symbol>
<symbol id="icon-star" viewBox="0 0 34 32">
<path fill="#ffc400" style="fill: var(--color4, #ffc400)" d="M14.908 1.228c0.532-1.638 2.849-1.638 3.382 0l2.7 8.309c0.238 0.732 0.921 1.228 1.691 1.228h8.737c1.722 0 2.438 2.204 1.045 3.216l-7.068 5.135c-0.623 0.453-0.884 1.255-0.646 1.988l2.7 8.309c0.532 1.638-1.342 3-2.736 1.988l-7.068-5.135c-0.623-0.453-1.467-0.453-2.090 0l-7.068 5.135c-1.393 1.012-3.268-0.35-2.736-1.988l2.7-8.309c0.238-0.732-0.023-1.535-0.646-1.988l-7.068-5.135c-1.393-1.012-0.677-3.216 1.045-3.216h8.736c0.77 0 1.453-0.496 1.691-1.228l2.7-8.309z"></path>
</symbol>
<symbol id="icon-arrow2" viewBox="0 0 32 32">
<path fill="#244a5b" style="fill: var(--color1, #244a5b)" d="M24.35 18h-24.35v-4h24.35l-11.2-11.2 2.85-2.8 16 16-16 16-2.85-2.8 11.2-11.2z"></path>
</symbol>
<symbol id="icon-chevron" viewBox="0 0 20 32">
<path fill="#244a5b" style="fill: var(--color1, #244a5b)" d="M3.015 32l-3.015-2.84 13.97-13.16-13.97-13.16 3.015-2.84 16.985 16-16.985 16z"></path>
</symbol>
<symbol id="icon-narrow" viewBox="0 0 32 32">
<path d="M28 6l-10 10v10h-4v-10l-10-10h24z"></path>
</symbol>
<symbol id="icon-user-check" viewBox="0 0 32 32">
<path d="M30 19l-9 9-3-3-2 2 5 5 11-11z"></path>
<path d="M14 24h10v-3.598c-2.101-1.225-4.885-2.066-8-2.321v-1.649c2.203-1.242 4-4.337 4-7.432 0-4.971 0-9-6-9s-6 4.029-6 9c0 3.096 1.797 6.191 4 7.432v1.649c-6.784 0.555-12 3.888-12 7.918h14v-2z"></path>
</symbol>
<symbol id="icon-facebook2" viewBox="0 0 32 32">
<path d="M29 0h-26c-1.65 0-3 1.35-3 3v26c0 1.65 1.35 3 3 3h13v-14h-4v-4h4v-2c0-3.306 2.694-6 6-6h4v4h-4c-1.1 0-2 0.9-2 2v2h6l-1 4h-5v14h9c1.65 0 3-1.35 3-3v-26c0-1.65-1.35-3-3-3z"></path>
</symbol>
<symbol id="icon-instagram" viewBox="0 0 32 32">
<path d="M16 2.881c4.275 0 4.781 0.019 6.462 0.094 1.563 0.069 2.406 0.331 2.969 0.55 0.744 0.288 1.281 0.638 1.837 1.194 0.563 0.563 0.906 1.094 1.2 1.838 0.219 0.563 0.481 1.412 0.55 2.969 0.075 1.688 0.094 2.194 0.094 6.463s-0.019 4.781-0.094 6.463c-0.069 1.563-0.331 2.406-0.55 2.969-0.288 0.744-0.637 1.281-1.194 1.837-0.563 0.563-1.094 0.906-1.837 1.2-0.563 0.219-1.413 0.481-2.969 0.55-1.688 0.075-2.194 0.094-6.463 0.094s-4.781-0.019-6.463-0.094c-1.563-0.069-2.406-0.331-2.969-0.55-0.744-0.288-1.281-0.637-1.838-1.194-0.563-0.563-0.906-1.094-1.2-1.837-0.219-0.563-0.481-1.413-0.55-2.969-0.075-1.688-0.094-2.194-0.094-6.463s0.019-4.781 0.094-6.463c0.069-1.563 0.331-2.406 0.55-2.969 0.288-0.744 0.638-1.281 1.194-1.838 0.563-0.563 1.094-0.906 1.838-1.2 0.563-0.219 1.412-0.481 2.969-0.55 1.681-0.075 2.188-0.094 6.463-0.094zM16 0c-4.344 0-4.887 0.019-6.594 0.094-1.7 0.075-2.869 0.35-3.881 0.744-1.056 0.412-1.95 0.956-2.837 1.85-0.894 0.888-1.438 1.781-1.85 2.831-0.394 1.019-0.669 2.181-0.744 3.881-0.075 1.713-0.094 2.256-0.094 6.6s0.019 4.887 0.094 6.594c0.075 1.7 0.35 2.869 0.744 3.881 0.413 1.056 0.956 1.95 1.85 2.837 0.887 0.887 1.781 1.438 2.831 1.844 1.019 0.394 2.181 0.669 3.881 0.744 1.706 0.075 2.25 0.094 6.594 0.094s4.888-0.019 6.594-0.094c1.7-0.075 2.869-0.35 3.881-0.744 1.050-0.406 1.944-0.956 2.831-1.844s1.438-1.781 1.844-2.831c0.394-1.019 0.669-2.181 0.744-3.881 0.075-1.706 0.094-2.25 0.094-6.594s-0.019-4.887-0.094-6.594c-0.075-1.7-0.35-2.869-0.744-3.881-0.394-1.063-0.938-1.956-1.831-2.844-0.887-0.887-1.781-1.438-2.831-1.844-1.019-0.394-2.181-0.669-3.881-0.744-1.712-0.081-2.256-0.1-6.6-0.1v0z"></path>
<path d="M16 7.781c-4.537 0-8.219 3.681-8.219 8.219s3.681 8.219 8.219 8.219 8.219-3.681 8.219-8.219c0-4.537-3.681-8.219-8.219-8.219zM16 21.331c-2.944 0-5.331-2.387-5.331-5.331s2.387-5.331 5.331-5.331c2.944 0 5.331 2.387 5.331 5.331s-2.387 5.331-5.331 5.331z"></path>
<path d="M26.462 7.456c0 1.060-0.859 1.919-1.919 1.919s-1.919-0.859-1.919-1.919c0-1.060 0.859-1.919 1.919-1.919s1.919 0.859 1.919 1.919z"></path>
</symbol>
<symbol id="icon-whatsapp" viewBox="0 0 32 32">
<path d="M27.281 4.65c-2.994-3-6.975-4.65-11.219-4.65-8.738 0-15.85 7.112-15.85 15.856 0 2.794 0.731 5.525 2.119 7.925l-2.25 8.219 8.406-2.206c2.319 1.262 4.925 1.931 7.575 1.931h0.006c0 0 0 0 0 0 8.738 0 15.856-7.113 15.856-15.856 0-4.238-1.65-8.219-4.644-11.219zM16.069 29.050v0c-2.369 0-4.688-0.637-6.713-1.837l-0.481-0.288-4.987 1.306 1.331-4.863-0.313-0.5c-1.325-2.094-2.019-4.519-2.019-7.012 0-7.269 5.912-13.181 13.188-13.181 3.519 0 6.831 1.375 9.319 3.862 2.488 2.494 3.856 5.8 3.856 9.325-0.006 7.275-5.919 13.188-13.181 13.188zM23.294 19.175c-0.394-0.2-2.344-1.156-2.706-1.288s-0.625-0.2-0.894 0.2c-0.262 0.394-1.025 1.288-1.256 1.556-0.231 0.262-0.462 0.3-0.856 0.1s-1.675-0.619-3.188-1.969c-1.175-1.050-1.975-2.35-2.206-2.744s-0.025-0.613 0.175-0.806c0.181-0.175 0.394-0.463 0.594-0.694s0.262-0.394 0.394-0.662c0.131-0.262 0.069-0.494-0.031-0.694s-0.894-2.15-1.219-2.944c-0.319-0.775-0.65-0.669-0.894-0.681-0.231-0.012-0.494-0.012-0.756-0.012s-0.694 0.1-1.056 0.494c-0.363 0.394-1.387 1.356-1.387 3.306s1.419 3.831 1.619 4.1c0.2 0.262 2.794 4.269 6.769 5.981 0.944 0.406 1.681 0.65 2.256 0.837 0.95 0.3 1.813 0.256 2.494 0.156 0.762-0.113 2.344-0.956 2.675-1.881s0.331-1.719 0.231-1.881c-0.094-0.175-0.356-0.275-0.756-0.475z"></path>
</symbol>
<symbol id="icon-shield-off" viewBox="0 0 24 24">
<path d="M20.645 14.296c0.241-0.776 0.358-1.567 0.355-2.3v-6.996c0-0.426-0.267-0.79-0.649-0.936l-8-3c-0.236-0.088-0.484-0.082-0.701 0l-3.16 1.18c-0.517 0.192-0.78 0.768-0.587 1.286s0.769 0.78 1.287 0.587l2.809-1.049 7.001 2.625v6.311c0.002 0.522-0.082 1.111-0.265 1.7-0.164 0.527 0.131 1.088 0.659 1.251s1.088-0.131 1.251-0.659zM5 6.414l11.231 11.231c-1.189 1.207-2.63 2.314-4.262 3.199-1.209-0.69-4.402-2.702-6.019-5.531-0.079-0.138-0.153-0.276-0.223-0.417-0.456-0.911-0.727-1.878-0.727-2.896zM0.293 1.707l2.824 2.825c-0.075 0.142-0.116 0.302-0.117 0.468v7c0 1.382 0.369 2.655 0.938 3.791 0.087 0.175 0.179 0.346 0.276 0.515 2.351 4.114 7.34 6.589 7.34 6.589 0.298 0.149 0.636 0.135 0.914-0.010 1.985-1.047 3.74-2.366 5.178-3.825l4.648 4.648c0.391 0.391 1.024 0.391 1.414 0s0.391-1.024 0-1.414l-22.001-22.001c-0.391-0.391-1.024-0.391-1.414 0s-0.391 1.024 0 1.414z"></path>
</symbol>
<symbol id="icon-shield" viewBox="0 0 24 24">
<path d="M12 20.862c-1.184-0.672-4.42-2.695-6.050-5.549-0.079-0.138-0.153-0.276-0.223-0.417-0.456-0.911-0.727-1.878-0.727-2.896v-6.307l7-2.625 7 2.625v6.307c0 1.018-0.271 1.985-0.726 2.897-0.070 0.14-0.145 0.279-0.223 0.417-1.631 2.854-4.867 4.876-6.050 5.549zM12.447 22.894c0 0 4.989-2.475 7.34-6.589 0.096-0.168 0.188-0.34 0.276-0.515 0.568-1.135 0.937-2.408 0.937-3.79v-7c0-0.426-0.267-0.79-0.649-0.936l-8-3c-0.236-0.089-0.485-0.082-0.702 0l-8 3c-0.399 0.149-0.646 0.527-0.649 0.936v7c0 1.382 0.369 2.655 0.938 3.791 0.087 0.175 0.179 0.346 0.276 0.515 2.351 4.114 7.34 6.589 7.34 6.589 0.292 0.146 0.62 0.136 0.894 0z"></path>
</symbol>
<symbol id="icon-filter1" viewBox="0 0 24 24">
<path d="M19.845 4l-6.609 7.814c-0.147 0.173-0.236 0.399-0.236 0.646v6.922l-2-1v-5.922c0.001-0.227-0.077-0.457-0.236-0.646l-6.609-7.814zM22 2h-20c-0.552 0-1 0.448-1 1 0 0.247 0.089 0.473 0.236 0.646l7.764 9.18v6.174c0 0.389 0.222 0.727 0.553 0.894l4 2c0.494 0.247 1.095 0.047 1.342-0.447 0.072-0.146 0.106-0.301 0.105-0.447v-8.174l7.764-9.18c0.357-0.422 0.304-1.053-0.118-1.409-0.189-0.16-0.419-0.238-0.646-0.237z"></path>
</symbol>
</defs>
</svg>
